<?xml version="1.0" encoding="utf-8" standalone="no"?>
<!DOCTYPE svg PUBLIC "-//W3C//DTD SVG 1.1//EN"
  "http://www.w3.org/Graphics/SVG/1.1/DTD/svg11.dtd">
<svg xmlns:xlink="http://www.w3.org/1999/xlink" width="460.8pt" height="345.6pt" viewBox="0 0 460.8 345.6" xmlns="http://www.w3.org/2000/svg" version="1.1">
 <metadata>
  <rdf:RDF xmlns:dc="http://purl.org/dc/elements/1.1/" xmlns:cc="http://creativecommons.org/ns#" xmlns:rdf="http://www.w3.org/1999/02/22-rdf-syntax-ns#">
   <cc:Work>
    <dc:type rdf:resource="http://purl.org/dc/dcmitype/StillImage"/>
    <dc:date>2025-11-18T12:56:36.083818</dc:date>
    <dc:format>image/svg+xml</dc:format>
    <dc:creator>
     <cc:Agent>
      <dc:title>Matplotlib v3.8.1, https://matplotlib.org/</dc:title>
     </cc:Agent>
    </dc:creator>
   </cc:Work>
  </rdf:RDF>
 </metadata>
 <defs>
  <style type="text/css">*{stroke-linejoin: round; stroke-linecap: butt}</style>
 </defs>
 <g id="figure_1">
  <g id="patch_1">
   <path d="M 0 345.6 
L 460.8 345.6 
L 460.8 0 
L 0 0 
z
" style="fill: #ffffff"/>
  </g>
  <g id="axes_1">
   <g id="patch_2">
    <path d="M 57.6 307.584 
L 414.72 307.584 
L 414.72 41.472 
L 57.6 41.472 
z
" style="fill: #ffffff"/>
   </g>
   <g id="matplotlib.axis_1">
    <g id="xtick_1">
     <g id="line2d_1">
      <defs>
       <path id="mcd49f7fc38" d="M 0 0 
L 0 3.5 
" style="stroke: #000000; stroke-width: 0.8"/>
      </defs>
      <g>
       <use xlink:href="#mcd49f7fc38" x="57.6" y="307.584" style="stroke: #000000; stroke-width: 0.8"/>
      </g>
     </g>
     <g id="text_1">
      <!-- 0 -->
      <g transform="translate(54.41875 322.182437) scale(0.1 -0.1)">
       <defs>
        <path id="DejaVuSans-30" d="M 2034 4250 
Q 1547 4250 1301 3770 
Q 1056 3291 1056 2328 
Q 1056 1369 1301 889 
Q 1547 409 2034 409 
Q 2525 409 2770 889 
Q 3016 1369 3016 2328 
Q 3016 3291 2770 3770 
Q 2525 4250 2034 4250 
z
M 2034 4750 
Q 2819 4750 3233 4129 
Q 3647 3509 3647 2328 
Q 3647 1150 3233 529 
Q 2819 -91 2034 -91 
Q 1250 -91 836 529 
Q 422 1150 422 2328 
Q 422 3509 836 4129 
Q 1250 4750 2034 4750 
z
" transform="scale(0.015625)"/>
       </defs>
       <use xlink:href="#DejaVuSans-30"/>
      </g>
     </g>
    </g>
    <g id="xtick_2">
     <g id="line2d_2">
      <g>
       <use xlink:href="#mcd49f7fc38" x="127.35" y="307.584" style="stroke: #000000; stroke-width: 0.8"/>
      </g>
     </g>
     <g id="text_2">
      <!-- 50 -->
      <g transform="translate(120.9875 322.182437) scale(0.1 -0.1)">
       <defs>
        <path id="DejaVuSans-35" d="M 691 4666 
L 3169 4666 
L 3169 4134 
L 1269 4134 
L 1269 2991 
Q 1406 3038 1543 3061 
Q 1681 3084 1819 3084 
Q 2600 3084 3056 2656 
Q 3513 2228 3513 1497 
Q 3513 744 3044 326 
Q 2575 -91 1722 -91 
Q 1428 -91 1123 -41 
Q 819 9 494 109 
L 494 744 
Q 775 591 1075 516 
Q 1375 441 1709 441 
Q 2250 441 2565 725 
Q 2881 1009 2881 1497 
Q 2881 1984 2565 2268 
Q 2250 2553 1709 2553 
Q 1456 2553 1204 2497 
Q 953 2441 691 2322 
L 691 4666 
z
" transform="scale(0.015625)"/>
       </defs>
       <use xlink:href="#DejaVuSans-35"/>
       <use xlink:href="#DejaVuSans-30" x="63.623047"/>
      </g>
     </g>
    </g>
    <g id="xtick_3">
     <g id="line2d_3">
      <g>
       <use xlink:href="#mcd49f7fc38" x="197.1" y="307.584" style="stroke: #000000; stroke-width: 0.8"/>
      </g>
     </g>
     <g id="text_3">
      <!-- 100 -->
      <g transform="translate(187.55625 322.182437) scale(0.1 -0.1)">
       <defs>
        <path id="DejaVuSans-31" d="M 794 531 
L 1825 531 
L 1825 4091 
L 703 3866 
L 703 4441 
L 1819 4666 
L 2450 4666 
L 2450 531 
L 3481 531 
L 3481 0 
L 794 0 
L 794 531 
z
" transform="scale(0.015625)"/>
       </defs>
       <use xlink:href="#DejaVuSans-31"/>
       <use xlink:href="#DejaVuSans-30" x="63.623047"/>
       <use xlink:href="#DejaVuSans-30" x="127.246094"/>
      </g>
     </g>
    </g>
    <g id="xtick_4">
     <g id="line2d_4">
      <g>
       <use xlink:href="#mcd49f7fc38" x="266.85" y="307.584" style="stroke: #000000; stroke-width: 0.8"/>
      </g>
     </g>
     <g id="text_4">
      <!-- 150 -->
      <g transform="translate(257.30625 322.182437) scale(0.1 -0.1)">
       <use xlink:href="#DejaVuSans-31"/>
       <use xlink:href="#DejaVuSans-35" x="63.623047"/>
       <use xlink:href="#DejaVuSans-30" x="127.246094"/>
      </g>
     </g>
    </g>
    <g id="xtick_5">
     <g id="line2d_5">
      <g>
       <use xlink:href="#mcd49f7fc38" x="336.6" y="307.584" style="stroke: #000000; stroke-width: 0.8"/>
      </g>
     </g>
     <g id="text_5">
      <!-- 200 -->
      <g transform="translate(327.05625 322.182437) scale(0.1 -0.1)">
       <defs>
        <path id="DejaVuSans-32" d="M 1228 531 
L 3431 531 
L 3431 0 
L 469 0 
L 469 531 
Q 828 903 1448 1529 
Q 2069 2156 2228 2338 
Q 2531 2678 2651 2914 
Q 2772 3150 2772 3378 
Q 2772 3750 2511 3984 
Q 2250 4219 1831 4219 
Q 1534 4219 1204 4116 
Q 875 4013 500 3803 
L 500 4441 
Q 881 4594 1212 4672 
Q 1544 4750 1819 4750 
Q 2544 4750 2975 4387 
Q 3406 4025 3406 3419 
Q 3406 3131 3298 2873 
Q 3191 2616 2906 2266 
Q 2828 2175 2409 1742 
Q 1991 1309 1228 531 
z
" transform="scale(0.015625)"/>
       </defs>
       <use xlink:href="#DejaVuSans-32"/>
       <use xlink:href="#DejaVuSans-30" x="63.623047"/>
       <use xlink:href="#DejaVuSans-30" x="127.246094"/>
      </g>
     </g>
    </g>
    <g id="xtick_6">
     <g id="line2d_6">
      <g>
       <use xlink:href="#mcd49f7fc38" x="406.35" y="307.584" style="stroke: #000000; stroke-width: 0.8"/>
      </g>
     </g>
     <g id="text_6">
      <!-- 250 -->
      <g transform="translate(396.80625 322.182437) scale(0.1 -0.1)">
       <use xlink:href="#DejaVuSans-32"/>
       <use xlink:href="#DejaVuSans-35" x="63.623047"/>
       <use xlink:href="#DejaVuSans-30" x="127.246094"/>
      </g>
     </g>
    </g>
    <g id="text_7">
     <!-- Bins -->
     <g transform="translate(225.567031 335.860562) scale(0.1 -0.1)">
      <defs>
       <path id="DejaVuSans-42" d="M 1259 2228 
L 1259 519 
L 2272 519 
Q 2781 519 3026 730 
Q 3272 941 3272 1375 
Q 3272 1813 3026 2020 
Q 2781 2228 2272 2228 
L 1259 2228 
z
M 1259 4147 
L 1259 2741 
L 2194 2741 
Q 2656 2741 2882 2914 
Q 3109 3088 3109 3444 
Q 3109 3797 2882 3972 
Q 2656 4147 2194 4147 
L 1259 4147 
z
M 628 4666 
L 2241 4666 
Q 2963 4666 3353 4366 
Q 3744 4066 3744 3513 
Q 3744 3084 3544 2831 
Q 3344 2578 2956 2516 
Q 3422 2416 3680 2098 
Q 3938 1781 3938 1306 
Q 3938 681 3513 340 
Q 3088 0 2303 0 
L 628 0 
L 628 4666 
z
" transform="scale(0.015625)"/>
       <path id="DejaVuSans-69" d="M 603 3500 
L 1178 3500 
L 1178 0 
L 603 0 
L 603 3500 
z
M 603 4863 
L 1178 4863 
L 1178 4134 
L 603 4134 
L 603 4863 
z
" transform="scale(0.015625)"/>
       <path id="DejaVuSans-6e" d="M 3513 2113 
L 3513 0 
L 2938 0 
L 2938 2094 
Q 2938 2591 2744 2837 
Q 2550 3084 2163 3084 
Q 1697 3084 1428 2787 
Q 1159 2491 1159 1978 
L 1159 0 
L 581 0 
L 581 3500 
L 1159 3500 
L 1159 2956 
Q 1366 3272 1645 3428 
Q 1925 3584 2291 3584 
Q 2894 3584 3203 3211 
Q 3513 2838 3513 2113 
z
" transform="scale(0.015625)"/>
       <path id="DejaVuSans-73" d="M 2834 3397 
L 2834 2853 
Q 2591 2978 2328 3040 
Q 2066 3103 1784 3103 
Q 1356 3103 1142 2972 
Q 928 2841 928 2578 
Q 928 2378 1081 2264 
Q 1234 2150 1697 2047 
L 1894 2003 
Q 2506 1872 2764 1633 
Q 3022 1394 3022 966 
Q 3022 478 2636 193 
Q 2250 -91 1575 -91 
Q 1294 -91 989 -36 
Q 684 19 347 128 
L 347 722 
Q 666 556 975 473 
Q 1284 391 1588 391 
Q 1994 391 2212 530 
Q 2431 669 2431 922 
Q 2431 1156 2273 1281 
Q 2116 1406 1581 1522 
L 1381 1569 
Q 847 1681 609 1914 
Q 372 2147 372 2553 
Q 372 3047 722 3315 
Q 1072 3584 1716 3584 
Q 2034 3584 2315 3537 
Q 2597 3491 2834 3397 
z
" transform="scale(0.015625)"/>
      </defs>
      <use xlink:href="#DejaVuSans-42"/>
      <use xlink:href="#DejaVuSans-69" x="68.603516"/>
      <use xlink:href="#DejaVuSans-6e" x="96.386719"/>
      <use xlink:href="#DejaVuSans-73" x="159.765625"/>
     </g>
    </g>
   </g>
   <g id="matplotlib.axis_2">
    <g id="ytick_1">
     <g id="line2d_7">
      <defs>
       <path id="m3a6fb41482" d="M 0 0 
L -3.5 0 
" style="stroke: #000000; stroke-width: 0.8"/>
      </defs>
      <g>
       <use xlink:href="#m3a6fb41482" x="57.6" y="295.488" style="stroke: #000000; stroke-width: 0.8"/>
      </g>
     </g>
     <g id="text_8">
      <!-- 0 -->
      <g transform="translate(44.2375 299.287219) scale(0.1 -0.1)">
       <use xlink:href="#DejaVuSans-30"/>
      </g>
     </g>
    </g>
    <g id="ytick_2">
     <g id="line2d_8">
      <g>
       <use xlink:href="#m3a6fb41482" x="57.6" y="262.225247" style="stroke: #000000; stroke-width: 0.8"/>
      </g>
     </g>
     <g id="text_9">
      <!-- 1000 -->
      <g transform="translate(25.15 266.024466) scale(0.1 -0.1)">
       <use xlink:href="#DejaVuSans-31"/>
       <use xlink:href="#DejaVuSans-30" x="63.623047"/>
       <use xlink:href="#DejaVuSans-30" x="127.246094"/>
       <use xlink:href="#DejaVuSans-30" x="190.869141"/>
      </g>
     </g>
    </g>
    <g id="ytick_3">
     <g id="line2d_9">
      <g>
       <use xlink:href="#m3a6fb41482" x="57.6" y="228.962495" style="stroke: #000000; stroke-width: 0.8"/>
      </g>
     </g>
     <g id="text_10">
      <!-- 2000 -->
      <g transform="translate(25.15 232.761713) scale(0.1 -0.1)">
       <use xlink:href="#DejaVuSans-32"/>
       <use xlink:href="#DejaVuSans-30" x="63.623047"/>
       <use xlink:href="#DejaVuSans-30" x="127.246094"/>
       <use xlink:href="#DejaVuSans-30" x="190.869141"/>
      </g>
     </g>
    </g>
    <g id="ytick_4">
     <g id="line2d_10">
      <g>
       <use xlink:href="#m3a6fb41482" x="57.6" y="195.699742" style="stroke: #000000; stroke-width: 0.8"/>
      </g>
     </g>
     <g id="text_11">
      <!-- 3000 -->
      <g transform="translate(25.15 199.498961) scale(0.1 -0.1)">
       <defs>
        <path id="DejaVuSans-33" d="M 2597 2516 
Q 3050 2419 3304 2112 
Q 3559 1806 3559 1356 
Q 3559 666 3084 287 
Q 2609 -91 1734 -91 
Q 1441 -91 1130 -33 
Q 819 25 488 141 
L 488 750 
Q 750 597 1062 519 
Q 1375 441 1716 441 
Q 2309 441 2620 675 
Q 2931 909 2931 1356 
Q 2931 1769 2642 2001 
Q 2353 2234 1838 2234 
L 1294 2234 
L 1294 2753 
L 1863 2753 
Q 2328 2753 2575 2939 
Q 2822 3125 2822 3475 
Q 2822 3834 2567 4026 
Q 2313 4219 1838 4219 
Q 1578 4219 1281 4162 
Q 984 4106 628 3988 
L 628 4550 
Q 988 4650 1302 4700 
Q 1616 4750 1894 4750 
Q 2613 4750 3031 4423 
Q 3450 4097 3450 3541 
Q 3450 3153 3228 2886 
Q 3006 2619 2597 2516 
z
" transform="scale(0.015625)"/>
       </defs>
       <use xlink:href="#DejaVuSans-33"/>
       <use xlink:href="#DejaVuSans-30" x="63.623047"/>
       <use xlink:href="#DejaVuSans-30" x="127.246094"/>
       <use xlink:href="#DejaVuSans-30" x="190.869141"/>
      </g>
     </g>
    </g>
    <g id="ytick_5">
     <g id="line2d_11">
      <g>
       <use xlink:href="#m3a6fb41482" x="57.6" y="162.436989" style="stroke: #000000; stroke-width: 0.8"/>
      </g>
     </g>
     <g id="text_12">
      <!-- 4000 -->
      <g transform="translate(25.15 166.236208) scale(0.1 -0.1)">
       <defs>
        <path id="DejaVuSans-34" d="M 2419 4116 
L 825 1625 
L 2419 1625 
L 2419 4116 
z
M 2253 4666 
L 3047 4666 
L 3047 1625 
L 3713 1625 
L 3713 1100 
L 3047 1100 
L 3047 0 
L 2419 0 
L 2419 1100 
L 313 1100 
L 313 1709 
L 2253 4666 
z
" transform="scale(0.015625)"/>
       </defs>
       <use xlink:href="#DejaVuSans-34"/>
       <use xlink:href="#DejaVuSans-30" x="63.623047"/>
       <use xlink:href="#DejaVuSans-30" x="127.246094"/>
       <use xlink:href="#DejaVuSans-30" x="190.869141"/>
      </g>
     </g>
    </g>
    <g id="ytick_6">
     <g id="line2d_12">
      <g>
       <use xlink:href="#m3a6fb41482" x="57.6" y="129.174237" style="stroke: #000000; stroke-width: 0.8"/>
      </g>
     </g>
     <g id="text_13">
      <!-- 5000 -->
      <g transform="translate(25.15 132.973456) scale(0.1 -0.1)">
       <use xlink:href="#DejaVuSans-35"/>
       <use xlink:href="#DejaVuSans-30" x="63.623047"/>
       <use xlink:href="#DejaVuSans-30" x="127.246094"/>
       <use xlink:href="#DejaVuSans-30" x="190.869141"/>
      </g>
     </g>
    </g>
    <g id="ytick_7">
     <g id="line2d_13">
      <g>
       <use xlink:href="#m3a6fb41482" x="57.6" y="95.911484" style="stroke: #000000; stroke-width: 0.8"/>
      </g>
     </g>
     <g id="text_14">
      <!-- 6000 -->
      <g transform="translate(25.15 99.710703) scale(0.1 -0.1)">
       <defs>
        <path id="DejaVuSans-36" d="M 2113 2584 
Q 1688 2584 1439 2293 
Q 1191 2003 1191 1497 
Q 1191 994 1439 701 
Q 1688 409 2113 409 
Q 2538 409 2786 701 
Q 3034 994 3034 1497 
Q 3034 2003 2786 2293 
Q 2538 2584 2113 2584 
z
M 3366 4563 
L 3366 3988 
Q 3128 4100 2886 4159 
Q 2644 4219 2406 4219 
Q 1781 4219 1451 3797 
Q 1122 3375 1075 2522 
Q 1259 2794 1537 2939 
Q 1816 3084 2150 3084 
Q 2853 3084 3261 2657 
Q 3669 2231 3669 1497 
Q 3669 778 3244 343 
Q 2819 -91 2113 -91 
Q 1303 -91 875 529 
Q 447 1150 447 2328 
Q 447 3434 972 4092 
Q 1497 4750 2381 4750 
Q 2619 4750 2861 4703 
Q 3103 4656 3366 4563 
z
" transform="scale(0.015625)"/>
       </defs>
       <use xlink:href="#DejaVuSans-36"/>
       <use xlink:href="#DejaVuSans-30" x="63.623047"/>
       <use xlink:href="#DejaVuSans-30" x="127.246094"/>
       <use xlink:href="#DejaVuSans-30" x="190.869141"/>
      </g>
     </g>
    </g>
    <g id="ytick_8">
     <g id="line2d_14">
      <g>
       <use xlink:href="#m3a6fb41482" x="57.6" y="62.648731" style="stroke: #000000; stroke-width: 0.8"/>
      </g>
     </g>
     <g id="text_15">
      <!-- 7000 -->
      <g transform="translate(25.15 66.44795) scale(0.1 -0.1)">
       <defs>
        <path id="DejaVuSans-37" d="M 525 4666 
L 3525 4666 
L 3525 4397 
L 1831 0 
L 1172 0 
L 2766 4134 
L 525 4134 
L 525 4666 
z
" transform="scale(0.015625)"/>
       </defs>
       <use xlink:href="#DejaVuSans-37"/>
       <use xlink:href="#DejaVuSans-30" x="63.623047"/>
       <use xlink:href="#DejaVuSans-30" x="127.246094"/>
       <use xlink:href="#DejaVuSans-30" x="190.869141"/>
      </g>
     </g>
    </g>
    <g id="text_16">
     <!-- # de pixeles -->
     <g transform="translate(19.070312 205.660031) rotate(-90) scale(0.1 -0.1)">
      <defs>
       <path id="DejaVuSans-23" d="M 3272 2816 
L 2363 2816 
L 2100 1772 
L 3016 1772 
L 3272 2816 
z
M 2803 4594 
L 2478 3297 
L 3391 3297 
L 3719 4594 
L 4219 4594 
L 3897 3297 
L 4872 3297 
L 4872 2816 
L 3775 2816 
L 3519 1772 
L 4513 1772 
L 4513 1294 
L 3397 1294 
L 3072 0 
L 2572 0 
L 2894 1294 
L 1978 1294 
L 1656 0 
L 1153 0 
L 1478 1294 
L 494 1294 
L 494 1772 
L 1594 1772 
L 1856 2816 
L 850 2816 
L 850 3297 
L 1978 3297 
L 2297 4594 
L 2803 4594 
z
" transform="scale(0.015625)"/>
       <path id="DejaVuSans-20" transform="scale(0.015625)"/>
       <path id="DejaVuSans-64" d="M 2906 2969 
L 2906 4863 
L 3481 4863 
L 3481 0 
L 2906 0 
L 2906 525 
Q 2725 213 2448 61 
Q 2172 -91 1784 -91 
Q 1150 -91 751 415 
Q 353 922 353 1747 
Q 353 2572 751 3078 
Q 1150 3584 1784 3584 
Q 2172 3584 2448 3432 
Q 2725 3281 2906 2969 
z
M 947 1747 
Q 947 1113 1208 752 
Q 1469 391 1925 391 
Q 2381 391 2643 752 
Q 2906 1113 2906 1747 
Q 2906 2381 2643 2742 
Q 2381 3103 1925 3103 
Q 1469 3103 1208 2742 
Q 947 2381 947 1747 
z
" transform="scale(0.015625)"/>
       <path id="DejaVuSans-65" d="M 3597 1894 
L 3597 1613 
L 953 1613 
Q 991 1019 1311 708 
Q 1631 397 2203 397 
Q 2534 397 2845 478 
Q 3156 559 3463 722 
L 3463 178 
Q 3153 47 2828 -22 
Q 2503 -91 2169 -91 
Q 1331 -91 842 396 
Q 353 884 353 1716 
Q 353 2575 817 3079 
Q 1281 3584 2069 3584 
Q 2775 3584 3186 3129 
Q 3597 2675 3597 1894 
z
M 3022 2063 
Q 3016 2534 2758 2815 
Q 2500 3097 2075 3097 
Q 1594 3097 1305 2825 
Q 1016 2553 972 2059 
L 3022 2063 
z
" transform="scale(0.015625)"/>
       <path id="DejaVuSans-70" d="M 1159 525 
L 1159 -1331 
L 581 -1331 
L 581 3500 
L 1159 3500 
L 1159 2969 
Q 1341 3281 1617 3432 
Q 1894 3584 2278 3584 
Q 2916 3584 3314 3078 
Q 3713 2572 3713 1747 
Q 3713 922 3314 415 
Q 2916 -91 2278 -91 
Q 1894 -91 1617 61 
Q 1341 213 1159 525 
z
M 3116 1747 
Q 3116 2381 2855 2742 
Q 2594 3103 2138 3103 
Q 1681 3103 1420 2742 
Q 1159 2381 1159 1747 
Q 1159 1113 1420 752 
Q 1681 391 2138 391 
Q 2594 391 2855 752 
Q 3116 1113 3116 1747 
z
" transform="scale(0.015625)"/>
       <path id="DejaVuSans-78" d="M 3513 3500 
L 2247 1797 
L 3578 0 
L 2900 0 
L 1881 1375 
L 863 0 
L 184 0 
L 1544 1831 
L 300 3500 
L 978 3500 
L 1906 2253 
L 2834 3500 
L 3513 3500 
z
" transform="scale(0.015625)"/>
       <path id="DejaVuSans-6c" d="M 603 4863 
L 1178 4863 
L 1178 0 
L 603 0 
L 603 4863 
z
" transform="scale(0.015625)"/>
      </defs>
      <use xlink:href="#DejaVuSans-23"/>
      <use xlink:href="#DejaVuSans-20" x="83.789062"/>
      <use xlink:href="#DejaVuSans-64" x="115.576172"/>
      <use xlink:href="#DejaVuSans-65" x="179.052734"/>
      <use xlink:href="#DejaVuSans-20" x="240.576172"/>
      <use xlink:href="#DejaVuSans-70" x="272.363281"/>
      <use xlink:href="#DejaVuSans-69" x="335.839844"/>
      <use xlink:href="#DejaVuSans-78" x="363.623047"/>
      <use xlink:href="#DejaVuSans-65" x="419.677734"/>
      <use xlink:href="#DejaVuSans-6c" x="481.201172"/>
      <use xlink:href="#DejaVuSans-65" x="508.984375"/>
      <use xlink:href="#DejaVuSans-73" x="570.507812"/>
     </g>
    </g>
   </g>
   <g id="line2d_15">
    <path d="M 57.6 295.388212 
L 60.39 294.856008 
L 61.785 294.323804 
L 63.18 294.124227 
L 64.575 293.259396 
L 65.97 292.560878 
L 67.365 289.899858 
L 70.155 279.0562 
L 71.55 280.852389 
L 72.945 279.688192 
L 74.34 278.357682 
L 75.735 278.457471 
L 77.13 275.79645 
L 78.525 272.869328 
L 79.92 268.478645 
L 81.315 262.990291 
L 82.71 261.327153 
L 84.105 264.753217 
L 85.5 262.657663 
L 89.685 255.37312 
L 91.08 255.639222 
L 92.475 252.778626 
L 93.87 250.41697 
L 95.265 248.520993 
L 98.055 240.50467 
L 99.45 236.612928 
L 100.845 233.98517 
L 102.24 230.492581 
L 103.635 228.895969 
L 105.03 222.409732 
L 106.425 223.074987 
L 107.82 217.653159 
L 109.215 214.992139 
L 110.61 216.023284 
L 112.005 211.599338 
L 113.4 211.133659 
L 114.795 208.905055 
L 116.19 206.144246 
L 118.98 202.651657 
L 120.375 203.117336 
L 121.77 204.813736 
L 123.165 202.352293 
L 125.955 194.635334 
L 127.35 197.495931 
L 128.745 199.358645 
L 130.14 191.142745 
L 131.535 192.706094 
L 132.93 187.882995 
L 134.325 186.020281 
L 135.72 183.325998 
L 137.115 182.095276 
L 138.51 176.074718 
L 139.905 174.511369 
L 141.3 173.879376 
L 142.695 175.243149 
L 144.09 174.112216 
L 145.485 172.016662 
L 146.88 173.446961 
L 148.275 170.519838 
L 149.67 168.158183 
L 151.065 164.964959 
L 152.46 160.906903 
L 153.855 157.913255 
L 155.25 150.928077 
L 156.645 157.281263 
L 158.04 154.254352 
L 159.435 149.99672 
L 160.83 153.289732 
L 162.225 155.684651 
L 163.62 156.848847 
L 165.015 147.036335 
L 166.41 151.194179 
L 167.805 149.963457 
L 169.2 146.936547 
L 170.595 149.165151 
L 171.99 147.402225 
L 173.385 142.978279 
L 174.78 143.211118 
L 176.175 145.938664 
L 177.57 142.346287 
L 178.965 144.308789 
L 180.36 136.325729 
L 181.755 138.75391 
L 183.15 130.571272 
L 184.545 128.741821 
L 185.94 128.276142 
L 187.335 129.274025 
L 188.73 133.465132 
L 190.125 133.997336 
L 191.52 133.864285 
L 192.915 130.371696 
L 194.31 123.519569 
L 195.705 118.729732 
L 197.1 119.06236 
L 198.495 119.162148 
L 204.075 91.953217 
L 205.47 90.822283 
L 206.865 88.128 
L 208.26 88.394102 
L 209.655 84.635411 
L 211.05 86.298549 
L 212.445 82.107442 
L 213.84 83.471215 
L 215.235 90.655969 
L 216.63 96.277374 
L 218.025 99.503861 
L 219.42 105.857047 
L 220.815 106.422514 
L 222.21 108.518067 
L 223.605 110.181205 
L 225 112.243496 
L 226.395 112.908751 
L 227.79 120.825286 
L 229.185 124.184824 
L 230.58 129.639915 
L 231.975 132.83314 
L 233.37 133.764497 
L 234.765 139.984631 
L 236.16 138.787172 
L 237.555 143.510483 
L 238.95 143.310907 
L 240.345 145.04057 
L 241.74 148.06748 
L 243.135 147.768115 
L 244.53 149.39799 
L 245.925 147.601802 
L 247.32 148.267057 
L 248.715 147.402225 
L 250.11 146.071715 
L 251.505 150.894814 
L 252.9 148.366845 
L 254.295 153.888462 
L 255.69 149.963457 
L 257.085 151.427018 
L 258.48 150.229559 
L 259.875 154.720031 
L 261.27 154.354141 
L 262.665 157.680416 
L 264.06 162.80288 
L 265.455 159.809232 
L 266.85 163.501397 
L 268.245 166.827673 
L 269.64 167.459665 
L 271.035 171.684035 
L 272.43 169.588481 
L 273.825 174.843996 
L 275.22 176.174506 
L 276.615 178.303322 
L 278.01 182.328115 
L 279.405 180.032986 
L 280.8 184.323881 
L 282.195 183.824939 
L 283.59 192.573043 
L 284.985 193.271561 
L 286.38 194.435757 
L 287.775 194.535546 
L 289.17 195.500166 
L 290.565 197.562456 
L 291.96 203.183861 
L 293.355 202.185979 
L 294.75 208.306325 
L 297.54 215.890233 
L 300.33 220.746595 
L 301.725 224.039607 
L 303.12 226.833679 
L 304.515 230.825209 
L 305.91 230.093428 
L 307.305 230.791946 
L 308.7 230.625632 
L 310.095 234.650425 
L 311.49 237.24492 
L 312.885 237.743861 
L 314.28 238.775007 
L 315.675 241.901705 
L 317.07 243.897471 
L 318.465 244.828828 
L 319.86 248.387942 
L 321.255 248.022052 
L 322.65 250.616547 
L 324.045 249.651927 
L 325.44 250.583284 
L 326.835 253.942822 
L 328.23 254.075873 
L 329.625 256.603842 
L 331.02 259.630753 
L 332.415 259.431176 
L 333.81 257.934352 
L 335.205 260.296008 
L 336.6 261.52673 
L 337.995 257.934352 
L 339.39 241.502552 
L 340.785 209.503784 
L 342.18 201.786826 
L 343.575 216.688539 
L 344.97 229.694275 
L 347.76 240.637721 
L 349.155 239.007846 
L 350.55 240.804035 
L 351.945 238.57543 
L 353.34 234.351061 
L 354.735 227.232832 
L 356.13 224.505286 
L 357.525 224.6716 
L 358.92 219.981551 
L 360.315 216.755064 
L 361.71 218.917143 
L 363.105 219.416085 
L 364.5 223.174776 
L 365.895 218.75083 
L 367.29 217.752947 
L 368.685 215.158452 
L 370.08 218.318414 
L 371.475 225.237066 
L 372.87 222.975199 
L 374.265 228.097663 
L 375.66 226.667365 
L 377.055 223.307827 
L 378.45 214.52646 
L 379.845 208.805267 
L 381.24 208.938318 
L 382.635 207.807384 
L 384.03 215.158452 
L 385.425 219.050194 
L 386.82 221.378587 
L 388.215 220.247654 
L 389.61 217.586633 
L 391.005 220.048077 
L 392.4 218.817355 
L 393.795 211.532812 
L 395.19 209.769886 
L 396.585 218.318414 
L 397.98 219.715449 
L 399.375 216.82159 
L 400.77 220.580281 
L 402.165 241.702129 
L 403.56 246.79133 
L 404.955 246.724805 
L 406.35 254.874179 
L 407.745 272.836065 
L 409.14 286.374006 
L 410.535 293.226133 
L 411.93 295.088847 
L 413.325 295.454737 
L 413.325 295.454737 
" clip-path="url(#paadf9a5ce0)" style="fill: none; stroke: #0000ff; stroke-width: 1.5; stroke-linecap: square"/>
   </g>
   <g id="line2d_16">
    <path d="M 57.6 295.454737 
L 58.995 295.321686 
L 60.39 294.257278 
L 61.785 288.735661 
L 63.18 278.956412 
L 64.575 273.268481 
L 65.97 273.567846 
L 68.76 264.18775 
L 70.155 266.715719 
L 72.945 277.459588 
L 74.34 279.887769 
L 75.735 280.819126 
L 77.13 281.451118 
L 78.525 281.251542 
L 79.92 281.384593 
L 81.315 282.515526 
L 82.71 280.353448 
L 84.105 281.417856 
L 85.5 280.187134 
L 86.895 277.925267 
L 88.29 278.357682 
L 89.685 278.557259 
L 91.08 276.894121 
L 92.475 276.76107 
L 93.87 276.461705 
L 95.265 277.991792 
L 96.66 275.663399 
L 98.055 275.630137 
L 99.45 272.935854 
L 100.845 272.270599 
L 102.24 269.476527 
L 105.03 269.443265 
L 106.425 265.351946 
L 107.82 265.51826 
L 109.215 265.185632 
L 110.61 263.090079 
L 112.005 264.487115 
L 113.4 260.063168 
L 114.795 260.495584 
L 117.585 250.949174 
L 118.98 249.286037 
L 120.375 250.317182 
L 121.77 247.323534 
L 123.165 245.394295 
L 124.56 244.595988 
L 125.955 239.839415 
L 127.35 239.54005 
L 128.745 239.806152 
L 130.14 234.051696 
L 131.535 231.390676 
L 132.93 230.991523 
L 135.72 229.727538 
L 137.115 225.370117 
L 138.51 220.547018 
L 139.905 220.513756 
L 141.3 215.890233 
L 142.695 220.646807 
L 144.09 217.021167 
L 145.485 217.021167 
L 146.88 210.767769 
L 148.275 213.495315 
L 149.67 209.902937 
L 151.065 210.035988 
L 152.46 211.532812 
L 153.855 202.185979 
L 155.25 203.383438 
L 158.04 203.483226 
L 159.435 201.387673 
L 160.83 203.64954 
L 162.225 206.842764 
L 163.62 203.982167 
L 165.015 206.244035 
L 166.41 198.859704 
L 167.805 202.68492 
L 169.2 200.0239 
L 170.595 202.917759 
L 171.99 196.431523 
L 173.385 197.961609 
L 174.78 196.830676 
L 176.175 194.335969 
L 177.57 193.670714 
L 178.965 193.703977 
L 180.36 190.976431 
L 181.755 183.891465 
L 183.15 186.85185 
L 184.545 185.953756 
L 185.94 176.873024 
L 187.335 180.166037 
L 188.73 175.176624 
L 190.125 172.848231 
L 191.52 171.218356 
L 192.915 169.122803 
L 197.1 163.567923 
L 198.495 155.119184 
L 199.89 158.911138 
L 202.68 161.272793 
L 204.075 158.511985 
L 205.47 161.372581 
L 206.865 156.28338 
L 208.26 160.87364 
L 209.655 161.705209 
L 211.05 155.950753 
L 212.445 157.84673 
L 213.84 153.422783 
L 215.235 150.828289 
L 216.63 151.360493 
L 218.025 153.356258 
L 219.42 153.98825 
L 220.815 152.724266 
L 222.21 152.092273 
L 223.605 153.555834 
L 225 148.932312 
L 226.395 155.285498 
L 227.79 153.223207 
L 229.185 151.659858 
L 230.58 145.705825 
L 231.975 145.506248 
L 233.37 150.462398 
L 234.765 136.591831 
L 236.16 140.117682 
L 237.555 135.560685 
L 238.95 132.866402 
L 240.345 131.336316 
L 241.74 127.577625 
L 243.135 126.779319 
L 244.53 124.151561 
L 245.925 126.047538 
L 247.32 119.760878 
L 248.715 125.282495 
L 250.11 121.390753 
L 251.505 126.845844 
L 252.9 125.71491 
L 254.295 122.554949 
L 255.69 121.191176 
L 257.085 118.762995 
L 258.48 120.193294 
L 259.875 116.833756 
L 261.27 116.867018 
L 262.665 114.671677 
L 264.06 98.772081 
L 265.455 93.150676 
L 266.85 92.319107 
L 268.245 98.007038 
L 269.64 99.337548 
L 271.035 101.89878 
L 272.43 99.337548 
L 273.825 109.116797 
L 275.22 100.401956 
L 276.615 97.042418 
L 278.01 90.42313 
L 279.405 86.997066 
L 280.8 90.489655 
L 282.195 86.298549 
L 283.59 87.629059 
L 284.985 90.922071 
L 286.38 94.580974 
L 287.775 102.164882 
L 289.17 112.443072 
L 290.565 114.571888 
L 293.355 121.191176 
L 294.75 103.828019 
L 296.145 92.385632 
L 297.54 91.487538 
L 298.935 101.466364 
L 300.33 117.232909 
L 301.725 116.634179 
L 303.12 121.856431 
L 304.515 124.750291 
L 305.91 131.502629 
L 307.305 129.107711 
L 308.7 132.367461 
L 310.095 129.606653 
L 311.49 126.180589 
L 312.885 118.762995 
L 314.28 120.259819 
L 315.675 123.719145 
L 317.07 120.75876 
L 318.465 121.656855 
L 319.86 125.016393 
L 321.255 132.932928 
L 322.65 135.327846 
L 325.44 135.327846 
L 326.835 137.19056 
L 328.23 137.124035 
L 331.02 144.009424 
L 332.415 151.194179 
L 333.81 159.642918 
L 335.205 164.86517 
L 336.6 167.725767 
L 337.995 168.058395 
L 339.39 166.095892 
L 340.785 162.769617 
L 342.18 165.596951 
L 343.575 170.686152 
L 344.97 171.185093 
L 346.365 181.862437 
L 347.76 180.365613 
L 349.155 181.66286 
L 350.55 182.727269 
L 351.945 181.729386 
L 353.34 183.891465 
L 354.735 180.432139 
L 356.13 180.199299 
L 357.525 183.325998 
L 358.92 195.333852 
L 361.71 213.262475 
L 363.105 215.291503 
L 365.895 230.093428 
L 367.29 241.336239 
L 370.08 249.68519 
L 371.475 251.947057 
L 372.87 256.736893 
L 374.265 263.522495 
L 375.66 269.543053 
L 377.055 274.865093 
L 378.45 279.289039 
L 379.845 279.189251 
L 381.24 284.61108 
L 382.635 286.374006 
L 384.03 289.633756 
L 385.425 291.662783 
L 388.215 294.024439 
L 391.005 294.490117 
L 392.4 294.689694 
L 393.795 295.088847 
L 395.19 295.055584 
L 396.585 295.255161 
L 403.56 295.488 
L 413.325 295.488 
L 413.325 295.488 
" clip-path="url(#paadf9a5ce0)" style="fill: none; stroke: #008000; stroke-width: 1.5; stroke-linecap: square"/>
   </g>
   <g id="line2d_17">
    <path d="M 57.6 294.390329 
L 58.995 284.24519 
L 61.785 267.21466 
L 63.18 261.260628 
L 64.575 263.555757 
L 65.97 269.310214 
L 67.365 272.669752 
L 68.76 277.958529 
L 70.155 281.417856 
L 71.55 281.417856 
L 72.945 281.650695 
L 74.34 283.114256 
L 75.735 282.382475 
L 77.13 282.31595 
L 78.525 282.449001 
L 79.92 284.24519 
L 81.315 283.546672 
L 82.71 283.080993 
L 84.105 284.178664 
L 85.5 280.519761 
L 86.895 279.588404 
L 88.29 279.089463 
L 89.685 280.187134 
L 91.08 279.721455 
L 92.475 275.896239 
L 93.87 276.262129 
L 95.265 272.569963 
L 96.66 269.942206 
L 98.055 270.175045 
L 99.45 268.378857 
L 100.845 269.842418 
L 102.24 270.47441 
L 103.635 267.081609 
L 105.03 266.150252 
L 106.425 264.154487 
L 107.82 261.726306 
L 109.215 261.027788 
L 110.61 260.994526 
L 112.005 260.794949 
L 113.4 260.296008 
L 116.19 257.801301 
L 117.585 257.402148 
L 118.98 257.202572 
L 120.375 257.468674 
L 123.165 257.169309 
L 124.56 255.107018 
L 125.955 258.865709 
L 127.35 256.570579 
L 128.745 257.136046 
L 130.14 255.306595 
L 131.535 254.774391 
L 132.93 255.206807 
L 134.325 253.610194 
L 135.72 253.443881 
L 137.115 250.483496 
L 138.51 249.385825 
L 139.905 249.352562 
L 141.3 250.483496 
L 142.695 248.487731 
L 144.09 248.055315 
L 145.485 248.853621 
L 146.88 242.833063 
L 148.275 242.367384 
L 149.67 239.939203 
L 151.065 243.664631 
L 152.46 237.311446 
L 153.855 238.475642 
L 155.25 236.912293 
L 156.645 235.54852 
L 158.04 232.388558 
L 159.435 237.743861 
L 160.83 232.787711 
L 162.225 236.113987 
L 163.62 235.980936 
L 165.015 234.251272 
L 166.41 234.384323 
L 167.805 235.282418 
L 170.595 229.162071 
L 171.99 228.66313 
L 173.385 227.432408 
L 174.78 225.436643 
L 177.57 219.915026 
L 178.965 219.149983 
L 180.36 214.759299 
L 181.755 216.854853 
L 183.15 213.628366 
L 184.545 212.530695 
L 185.94 209.670098 
L 187.335 210.002726 
L 190.125 203.383438 
L 191.52 200.855469 
L 192.915 197.994872 
L 194.31 195.999107 
L 195.705 194.435757 
L 197.1 195.234064 
L 198.495 190.444227 
L 199.89 192.306941 
L 201.285 185.52134 
L 202.68 184.323881 
L 204.075 184.989136 
L 205.47 182.427904 
L 206.865 184.889347 
L 209.655 177.30544 
L 211.05 175.143361 
L 212.445 170.586364 
L 213.84 173.646537 
L 215.235 166.095892 
L 216.63 165.497163 
L 218.025 156.150329 
L 219.42 156.88211 
L 220.815 155.584862 
L 222.21 154.58698 
L 223.605 154.054776 
L 225 155.418549 
L 226.395 154.753294 
L 227.79 156.383168 
L 229.185 156.616008 
L 230.58 155.850964 
L 231.975 158.678298 
L 233.37 159.642918 
L 234.765 158.279145 
L 236.16 152.724266 
L 238.95 146.337817 
L 240.345 144.741205 
L 241.74 137.756027 
L 243.135 135.793525 
L 244.53 123.419781 
L 245.925 114.871253 
L 247.32 102.830137 
L 248.715 91.986479 
L 250.11 96.676527 
L 251.505 94.980127 
L 252.9 98.173351 
L 254.295 97.441571 
L 255.69 95.246229 
L 257.085 82.706171 
L 258.48 62.016739 
L 259.875 71.263784 
L 261.27 88.660204 
L 262.665 93.017625 
L 264.06 102.331195 
L 265.455 114.039684 
L 266.85 112.376547 
L 268.245 110.014891 
L 269.64 111.145825 
L 271.035 106.355988 
L 272.43 94.181821 
L 273.825 94.580974 
L 275.22 96.443688 
L 276.615 95.113178 
L 278.01 93.350252 
L 279.405 101.366576 
L 280.8 104.160647 
L 282.195 108.351754 
L 283.59 105.990098 
L 284.985 111.046037 
L 286.38 106.954718 
L 287.775 105.757259 
L 289.17 101.200262 
L 290.565 93.250464 
L 291.96 92.385632 
L 293.355 94.514449 
L 294.75 93.483303 
L 296.145 98.372928 
L 297.54 93.849193 
L 298.935 98.007038 
L 300.33 91.653852 
L 301.725 91.986479 
L 303.12 82.639646 
L 304.515 87.429482 
L 305.91 80.610618 
L 307.305 76.153409 
L 308.7 86.365074 
L 310.095 82.606383 
L 311.49 80.244728 
L 312.885 65.309752 
L 314.28 61.717374 
L 315.675 54.000416 
L 317.07 55.330926 
L 318.465 53.568 
L 319.86 55.131349 
L 321.255 59.754872 
L 322.65 67.10594 
L 324.045 70.432216 
L 325.44 72.960185 
L 326.835 84.602148 
L 328.23 81.475449 
L 329.625 91.886691 
L 331.02 111.312139 
L 332.415 112.742437 
L 333.81 119.927192 
L 335.205 126.213852 
L 336.6 129.2075 
L 337.995 134.961956 
L 340.785 152.990368 
L 342.18 158.445459 
L 343.575 164.964959 
L 344.97 161.938048 
L 346.365 169.255854 
L 347.76 175.409463 
L 349.155 174.345055 
L 351.945 185.421551 
L 353.34 190.47749 
L 354.735 189.812235 
L 356.13 203.117336 
L 357.525 201.254622 
L 358.92 205.977933 
L 360.315 208.905055 
L 361.71 214.825825 
L 363.105 223.906556 
L 364.5 223.374352 
L 365.895 230.060166 
L 367.29 235.215892 
L 368.685 236.679453 
L 370.08 240.371619 
L 371.475 248.221628 
L 372.87 251.248539 
L 374.265 256.903207 
L 375.66 258.26698 
L 377.055 263.422706 
L 378.45 265.684574 
L 379.845 268.478645 
L 381.24 270.341359 
L 382.635 275.230984 
L 384.03 276.162341 
L 385.425 278.124843 
L 386.82 278.856624 
L 388.215 282.016585 
L 389.61 282.715103 
L 391.005 284.278452 
L 392.4 287.238837 
L 393.795 287.405151 
L 395.19 289.533967 
L 396.585 290.232485 
L 397.98 291.097317 
L 399.375 291.729309 
L 400.77 292.128462 
L 402.165 293.392447 
L 407.745 294.789482 
L 410.535 295.255161 
L 411.93 295.454737 
L 413.325 295.454737 
L 413.325 295.454737 
" clip-path="url(#paadf9a5ce0)" style="fill: none; stroke: #ff0000; stroke-width: 1.5; stroke-linecap: square"/>
   </g>
   <g id="patch_3">
    <path d="M 57.6 307.584 
L 57.6 41.472 
" style="fill: none; stroke: #000000; stroke-width: 0.8; stroke-linejoin: miter; stroke-linecap: square"/>
   </g>
   <g id="patch_4">
    <path d="M 414.72 307.584 
L 414.72 41.472 
" style="fill: none; stroke: #000000; stroke-width: 0.8; stroke-linejoin: miter; stroke-linecap: square"/>
   </g>
   <g id="patch_5">
    <path d="M 57.6 307.584 
L 414.72 307.584 
" style="fill: none; stroke: #000000; stroke-width: 0.8; stroke-linejoin: miter; stroke-linecap: square"/>
   </g>
   <g id="patch_6">
    <path d="M 57.6 41.472 
L 414.72 41.472 
" style="fill: none; stroke: #000000; stroke-width: 0.8; stroke-linejoin: miter; stroke-linecap: square"/>
   </g>
   <g id="text_17">
    <!-- Histograma en color -->
    <g transform="translate(175.275 35.472) scale(0.12 -0.12)">
     <defs>
      <path id="DejaVuSans-48" d="M 628 4666 
L 1259 4666 
L 1259 2753 
L 3553 2753 
L 3553 4666 
L 4184 4666 
L 4184 0 
L 3553 0 
L 3553 2222 
L 1259 2222 
L 1259 0 
L 628 0 
L 628 4666 
z
" transform="scale(0.015625)"/>
      <path id="DejaVuSans-74" d="M 1172 4494 
L 1172 3500 
L 2356 3500 
L 2356 3053 
L 1172 3053 
L 1172 1153 
Q 1172 725 1289 603 
Q 1406 481 1766 481 
L 2356 481 
L 2356 0 
L 1766 0 
Q 1100 0 847 248 
Q 594 497 594 1153 
L 594 3053 
L 172 3053 
L 172 3500 
L 594 3500 
L 594 4494 
L 1172 4494 
z
" transform="scale(0.015625)"/>
      <path id="DejaVuSans-6f" d="M 1959 3097 
Q 1497 3097 1228 2736 
Q 959 2375 959 1747 
Q 959 1119 1226 758 
Q 1494 397 1959 397 
Q 2419 397 2687 759 
Q 2956 1122 2956 1747 
Q 2956 2369 2687 2733 
Q 2419 3097 1959 3097 
z
M 1959 3584 
Q 2709 3584 3137 3096 
Q 3566 2609 3566 1747 
Q 3566 888 3137 398 
Q 2709 -91 1959 -91 
Q 1206 -91 779 398 
Q 353 888 353 1747 
Q 353 2609 779 3096 
Q 1206 3584 1959 3584 
z
" transform="scale(0.015625)"/>
      <path id="DejaVuSans-67" d="M 2906 1791 
Q 2906 2416 2648 2759 
Q 2391 3103 1925 3103 
Q 1463 3103 1205 2759 
Q 947 2416 947 1791 
Q 947 1169 1205 825 
Q 1463 481 1925 481 
Q 2391 481 2648 825 
Q 2906 1169 2906 1791 
z
M 3481 434 
Q 3481 -459 3084 -895 
Q 2688 -1331 1869 -1331 
Q 1566 -1331 1297 -1286 
Q 1028 -1241 775 -1147 
L 775 -588 
Q 1028 -725 1275 -790 
Q 1522 -856 1778 -856 
Q 2344 -856 2625 -561 
Q 2906 -266 2906 331 
L 2906 616 
Q 2728 306 2450 153 
Q 2172 0 1784 0 
Q 1141 0 747 490 
Q 353 981 353 1791 
Q 353 2603 747 3093 
Q 1141 3584 1784 3584 
Q 2172 3584 2450 3431 
Q 2728 3278 2906 2969 
L 2906 3500 
L 3481 3500 
L 3481 434 
z
" transform="scale(0.015625)"/>
      <path id="DejaVuSans-72" d="M 2631 2963 
Q 2534 3019 2420 3045 
Q 2306 3072 2169 3072 
Q 1681 3072 1420 2755 
Q 1159 2438 1159 1844 
L 1159 0 
L 581 0 
L 581 3500 
L 1159 3500 
L 1159 2956 
Q 1341 3275 1631 3429 
Q 1922 3584 2338 3584 
Q 2397 3584 2469 3576 
Q 2541 3569 2628 3553 
L 2631 2963 
z
" transform="scale(0.015625)"/>
      <path id="DejaVuSans-61" d="M 2194 1759 
Q 1497 1759 1228 1600 
Q 959 1441 959 1056 
Q 959 750 1161 570 
Q 1363 391 1709 391 
Q 2188 391 2477 730 
Q 2766 1069 2766 1631 
L 2766 1759 
L 2194 1759 
z
M 3341 1997 
L 3341 0 
L 2766 0 
L 2766 531 
Q 2569 213 2275 61 
Q 1981 -91 1556 -91 
Q 1019 -91 701 211 
Q 384 513 384 1019 
Q 384 1609 779 1909 
Q 1175 2209 1959 2209 
L 2766 2209 
L 2766 2266 
Q 2766 2663 2505 2880 
Q 2244 3097 1772 3097 
Q 1472 3097 1187 3025 
Q 903 2953 641 2809 
L 641 3341 
Q 956 3463 1253 3523 
Q 1550 3584 1831 3584 
Q 2591 3584 2966 3190 
Q 3341 2797 3341 1997 
z
" transform="scale(0.015625)"/>
      <path id="DejaVuSans-6d" d="M 3328 2828 
Q 3544 3216 3844 3400 
Q 4144 3584 4550 3584 
Q 5097 3584 5394 3201 
Q 5691 2819 5691 2113 
L 5691 0 
L 5113 0 
L 5113 2094 
Q 5113 2597 4934 2840 
Q 4756 3084 4391 3084 
Q 3944 3084 3684 2787 
Q 3425 2491 3425 1978 
L 3425 0 
L 2847 0 
L 2847 2094 
Q 2847 2600 2669 2842 
Q 2491 3084 2119 3084 
Q 1678 3084 1418 2786 
Q 1159 2488 1159 1978 
L 1159 0 
L 581 0 
L 581 3500 
L 1159 3500 
L 1159 2956 
Q 1356 3278 1631 3431 
Q 1906 3584 2284 3584 
Q 2666 3584 2933 3390 
Q 3200 3197 3328 2828 
z
" transform="scale(0.015625)"/>
      <path id="DejaVuSans-63" d="M 3122 3366 
L 3122 2828 
Q 2878 2963 2633 3030 
Q 2388 3097 2138 3097 
Q 1578 3097 1268 2742 
Q 959 2388 959 1747 
Q 959 1106 1268 751 
Q 1578 397 2138 397 
Q 2388 397 2633 464 
Q 2878 531 3122 666 
L 3122 134 
Q 2881 22 2623 -34 
Q 2366 -91 2075 -91 
Q 1284 -91 818 406 
Q 353 903 353 1747 
Q 353 2603 823 3093 
Q 1294 3584 2113 3584 
Q 2378 3584 2631 3529 
Q 2884 3475 3122 3366 
z
" transform="scale(0.015625)"/>
     </defs>
     <use xlink:href="#DejaVuSans-48"/>
     <use xlink:href="#DejaVuSans-69" x="75.195312"/>
     <use xlink:href="#DejaVuSans-73" x="102.978516"/>
     <use xlink:href="#DejaVuSans-74" x="155.078125"/>
     <use xlink:href="#DejaVuSans-6f" x="194.287109"/>
     <use xlink:href="#DejaVuSans-67" x="255.46875"/>
     <use xlink:href="#DejaVuSans-72" x="318.945312"/>
     <use xlink:href="#DejaVuSans-61" x="360.058594"/>
     <use xlink:href="#DejaVuSans-6d" x="421.337891"/>
     <use xlink:href="#DejaVuSans-61" x="518.75"/>
     <use xlink:href="#DejaVuSans-20" x="580.029297"/>
     <use xlink:href="#DejaVuSans-65" x="611.816406"/>
     <use xlink:href="#DejaVuSans-6e" x="673.339844"/>
     <use xlink:href="#DejaVuSans-20" x="736.71875"/>
     <use xlink:href="#DejaVuSans-63" x="768.505859"/>
     <use xlink:href="#DejaVuSans-6f" x="823.486328"/>
     <use xlink:href="#DejaVuSans-6c" x="884.667969"/>
     <use xlink:href="#DejaVuSans-6f" x="912.451172"/>
     <use xlink:href="#DejaVuSans-72" x="973.632812"/>
    </g>
   </g>
  </g>
 </g>
 <defs>
  <clipPath id="paadf9a5ce0">
   <rect x="57.6" y="41.472" width="357.12" height="266.112"/>
  </clipPath>
 </defs>
</svg>
